# xmcd
#
# Track frame offsets: 
#        150
#        30567
#        53943
#        73467
#        89212
#        109083
#        125486
#        148438
#        174640
#        192172
#        225084
#        246329
#        262749
#        274411
#
# Disc length: 3923 seconds
#
# Revision: 0
# Processed by: cddbd v1.5.2PL0 Copyright (c) Steve Scherf et al.
# Submitted via: ExactAudioCopy v0.95b4
#
DISCID=d70f510e
DTITLE=Lifehouse - 2002-10-13-St.James Theatre- Auckland, New Zealand
DYEAR=2002
DGENRE=Rock
TTITLE0=Intro/Anchor
TTITLE1=Wash
TTITLE2=Sick Cycle Carousel
TTITLE3=Just Another Name
TTITLE4=Somebody Else's Song
TTITLE5=Stanley Climbfall
TTITLE6=Spin
TTITLE7=Only One
TTITLE8=Sky Is Falling
TTITLE9=Quasimodo
TTITLE10=Take Me Away
TTITLE11=Hanging By A Moment
TTITLE12=Outro
TTITLE13=Spin acoustic @ The Rock FM studio 14-Oct-02
EXTD=
EXTT0=
EXTT1=
EXTT2=
EXTT3=
EXTT4=
EXTT5=
EXTT6=
EXTT7=
EXTT8=
EXTT9=
EXTT10=
EXTT11=
EXTT12=
EXTT13=
PLAYORDER=
